<mxfile host="Electron" agent="Mozilla/5.0 (Windows NT 10.0; Win64; x64) AppleWebKit/537.36 (KHTML, like Gecko) draw.io/24.7.17 Chrome/128.0.6613.36 Electron/32.0.1 Safari/537.36" version="24.7.17">
  <diagram name="Page-1" id="UtbOK0zW5hsTkXZm0h4_">
    <mxGraphModel dx="2625" dy="1638" grid="1" gridSize="10" guides="1" tooltips="1" connect="1" arrows="1" fold="1" page="1" pageScale="1" pageWidth="10000" pageHeight="10000" math="0" shadow="0">
      <root>
        <mxCell id="0" />
        <mxCell id="1" parent="0" />
        <mxCell id="uby8TdKSxkSI9Pqp53rK-13" style="edgeStyle=orthogonalEdgeStyle;rounded=0;orthogonalLoop=1;jettySize=auto;html=1;exitX=0.5;exitY=1;exitDx=0;exitDy=0;entryX=0.5;entryY=0;entryDx=0;entryDy=0;fillColor=#1ba1e2;strokeColor=#006EAF;strokeWidth=2;" parent="1" source="NwVNzG-oY3nR5FVAmbtb-1" target="NwVNzG-oY3nR5FVAmbtb-10" edge="1">
          <mxGeometry relative="1" as="geometry" />
        </mxCell>
        <mxCell id="uby8TdKSxkSI9Pqp53rK-15" style="edgeStyle=orthogonalEdgeStyle;rounded=0;orthogonalLoop=1;jettySize=auto;html=1;exitX=0.5;exitY=1;exitDx=0;exitDy=0;fillColor=#1ba1e2;strokeColor=#006EAF;strokeWidth=2;" parent="1" source="NwVNzG-oY3nR5FVAmbtb-1" target="NwVNzG-oY3nR5FVAmbtb-11" edge="1">
          <mxGeometry relative="1" as="geometry" />
        </mxCell>
        <mxCell id="uby8TdKSxkSI9Pqp53rK-63" style="edgeStyle=orthogonalEdgeStyle;rounded=0;orthogonalLoop=1;jettySize=auto;html=1;exitX=0.5;exitY=1;exitDx=0;exitDy=0;entryX=0.5;entryY=0;entryDx=0;entryDy=0;fillColor=#1ba1e2;strokeColor=#006EAF;strokeWidth=2;" parent="1" edge="1">
          <mxGeometry relative="1" as="geometry">
            <mxPoint x="3325" y="4128" as="sourcePoint" />
            <mxPoint x="2685" y="4343" as="targetPoint" />
            <Array as="points">
              <mxPoint x="3325" y="4173" />
              <mxPoint x="2685" y="4173" />
            </Array>
          </mxGeometry>
        </mxCell>
        <mxCell id="NwVNzG-oY3nR5FVAmbtb-1" value="&lt;h1&gt;&lt;b style=&quot;&quot;&gt;&lt;font style=&quot;font-size: 40px;&quot; face=&quot;Helvetica&quot;&gt;LMS&lt;/font&gt;&lt;/b&gt;&lt;/h1&gt;" style="rounded=0;whiteSpace=wrap;html=1;fillColor=#0050ef;strokeColor=#001DBC;fontFamily=Montserrat;fontSource=%22https%3A%2F%2Ffonts.googleapis.com%2Fcss2%3Ffamily%3DMontserrat%3Awght%40100%3B200%3B300%3B400%3B500%3B600%3B700%3B800%3B900%26display%3Dswap;fontColor=#ffffff;" parent="1" vertex="1">
          <mxGeometry x="3200" y="4025" width="250" height="100" as="geometry" />
        </mxCell>
        <mxCell id="uby8TdKSxkSI9Pqp53rK-23" style="edgeStyle=orthogonalEdgeStyle;rounded=0;orthogonalLoop=1;jettySize=auto;html=1;exitX=0.5;exitY=1;exitDx=0;exitDy=0;entryX=0.5;entryY=0;entryDx=0;entryDy=0;fillColor=#1ba1e2;strokeColor=#006EAF;strokeWidth=2;" parent="1" source="NwVNzG-oY3nR5FVAmbtb-7" target="NwVNzG-oY3nR5FVAmbtb-12" edge="1">
          <mxGeometry relative="1" as="geometry" />
        </mxCell>
        <mxCell id="uby8TdKSxkSI9Pqp53rK-31" style="edgeStyle=orthogonalEdgeStyle;rounded=0;orthogonalLoop=1;jettySize=auto;html=1;exitX=0.5;exitY=1;exitDx=0;exitDy=0;entryX=0.5;entryY=0;entryDx=0;entryDy=0;fillColor=#1ba1e2;strokeColor=#006EAF;strokeWidth=2;" parent="1" source="NwVNzG-oY3nR5FVAmbtb-7" target="NwVNzG-oY3nR5FVAmbtb-14" edge="1">
          <mxGeometry relative="1" as="geometry" />
        </mxCell>
        <mxCell id="uby8TdKSxkSI9Pqp53rK-32" style="edgeStyle=orthogonalEdgeStyle;rounded=0;orthogonalLoop=1;jettySize=auto;html=1;exitX=0.5;exitY=1;exitDx=0;exitDy=0;entryX=0.5;entryY=0;entryDx=0;entryDy=0;fillColor=#1ba1e2;strokeColor=#006EAF;strokeWidth=2;" parent="1" source="NwVNzG-oY3nR5FVAmbtb-7" target="NwVNzG-oY3nR5FVAmbtb-13" edge="1">
          <mxGeometry relative="1" as="geometry" />
        </mxCell>
        <mxCell id="uby8TdKSxkSI9Pqp53rK-33" style="edgeStyle=orthogonalEdgeStyle;rounded=0;orthogonalLoop=1;jettySize=auto;html=1;exitX=0.5;exitY=1;exitDx=0;exitDy=0;entryX=0.5;entryY=0;entryDx=0;entryDy=0;fillColor=#1ba1e2;strokeColor=#006EAF;strokeWidth=2;" parent="1" source="NwVNzG-oY3nR5FVAmbtb-7" target="NwVNzG-oY3nR5FVAmbtb-15" edge="1">
          <mxGeometry relative="1" as="geometry" />
        </mxCell>
        <mxCell id="uby8TdKSxkSI9Pqp53rK-34" style="edgeStyle=orthogonalEdgeStyle;rounded=0;orthogonalLoop=1;jettySize=auto;html=1;exitX=0.5;exitY=1;exitDx=0;exitDy=0;entryX=0.5;entryY=0;entryDx=0;entryDy=0;fillColor=#1ba1e2;strokeColor=#006EAF;strokeWidth=2;" parent="1" source="NwVNzG-oY3nR5FVAmbtb-7" target="NwVNzG-oY3nR5FVAmbtb-37" edge="1">
          <mxGeometry relative="1" as="geometry" />
        </mxCell>
        <mxCell id="NwVNzG-oY3nR5FVAmbtb-7" value="&lt;h2&gt;&lt;font face=&quot;Helvetica&quot;&gt;Students&lt;/font&gt;&lt;/h2&gt;" style="rounded=0;whiteSpace=wrap;html=1;fillColor=#0050ef;strokeColor=#001DBC;fontFamily=Montserrat;fontSource=%22https%3A%2F%2Ffonts.googleapis.com%2Fcss2%3Ffamily%3DMontserrat%3Awght%40100%3B200%3B300%3B400%3B500%3B600%3B700%3B800%3B900%26display%3Dswap;fontColor=#ffffff;" parent="1" vertex="1">
          <mxGeometry x="3380" y="4690" width="190" height="60" as="geometry" />
        </mxCell>
        <mxCell id="uby8TdKSxkSI9Pqp53rK-37" style="edgeStyle=orthogonalEdgeStyle;rounded=0;orthogonalLoop=1;jettySize=auto;html=1;exitX=0.5;exitY=1;exitDx=0;exitDy=0;entryX=0.5;entryY=0;entryDx=0;entryDy=0;fillColor=#1ba1e2;strokeColor=#006EAF;strokeWidth=2;" parent="1" source="NwVNzG-oY3nR5FVAmbtb-8" target="NwVNzG-oY3nR5FVAmbtb-17" edge="1">
          <mxGeometry relative="1" as="geometry" />
        </mxCell>
        <mxCell id="uby8TdKSxkSI9Pqp53rK-38" style="edgeStyle=orthogonalEdgeStyle;rounded=0;orthogonalLoop=1;jettySize=auto;html=1;exitX=0.5;exitY=1;exitDx=0;exitDy=0;entryX=0.5;entryY=0;entryDx=0;entryDy=0;fillColor=#1ba1e2;strokeColor=#006EAF;strokeWidth=2;" parent="1" source="NwVNzG-oY3nR5FVAmbtb-8" target="NwVNzG-oY3nR5FVAmbtb-19" edge="1">
          <mxGeometry relative="1" as="geometry" />
        </mxCell>
        <mxCell id="uby8TdKSxkSI9Pqp53rK-39" style="edgeStyle=orthogonalEdgeStyle;rounded=0;orthogonalLoop=1;jettySize=auto;html=1;exitX=0.5;exitY=1;exitDx=0;exitDy=0;entryX=0.5;entryY=0;entryDx=0;entryDy=0;fillColor=#1ba1e2;strokeColor=#006EAF;strokeWidth=2;" parent="1" source="NwVNzG-oY3nR5FVAmbtb-8" target="NwVNzG-oY3nR5FVAmbtb-18" edge="1">
          <mxGeometry relative="1" as="geometry" />
        </mxCell>
        <mxCell id="uby8TdKSxkSI9Pqp53rK-40" style="edgeStyle=orthogonalEdgeStyle;rounded=0;orthogonalLoop=1;jettySize=auto;html=1;exitX=0.5;exitY=1;exitDx=0;exitDy=0;fillColor=#1ba1e2;strokeColor=#006EAF;strokeWidth=2;" parent="1" source="NwVNzG-oY3nR5FVAmbtb-8" target="NwVNzG-oY3nR5FVAmbtb-20" edge="1">
          <mxGeometry relative="1" as="geometry" />
        </mxCell>
        <mxCell id="uby8TdKSxkSI9Pqp53rK-41" style="edgeStyle=orthogonalEdgeStyle;rounded=0;orthogonalLoop=1;jettySize=auto;html=1;exitX=0.5;exitY=1;exitDx=0;exitDy=0;entryX=0.5;entryY=0;entryDx=0;entryDy=0;fillColor=#1ba1e2;strokeColor=#006EAF;strokeWidth=2;" parent="1" source="NwVNzG-oY3nR5FVAmbtb-8" target="NwVNzG-oY3nR5FVAmbtb-21" edge="1">
          <mxGeometry relative="1" as="geometry" />
        </mxCell>
        <mxCell id="NwVNzG-oY3nR5FVAmbtb-8" value="&lt;h2&gt;&lt;font face=&quot;Helvetica&quot;&gt;Teachers&lt;/font&gt;&lt;/h2&gt;" style="rounded=0;whiteSpace=wrap;html=1;fillColor=#0050ef;strokeColor=#001DBC;fontFamily=Montserrat;fontSource=%22https%3A%2F%2Ffonts.googleapis.com%2Fcss2%3Ffamily%3DMontserrat%3Awght%40100%3B200%3B300%3B400%3B500%3B600%3B700%3B800%3B900%26display%3Dswap;fontColor=#ffffff;" parent="1" vertex="1">
          <mxGeometry x="3375" y="5162" width="190" height="60" as="geometry" />
        </mxCell>
        <mxCell id="uby8TdKSxkSI9Pqp53rK-20" style="edgeStyle=orthogonalEdgeStyle;rounded=0;orthogonalLoop=1;jettySize=auto;html=1;exitX=0.5;exitY=1;exitDx=0;exitDy=0;entryX=0.5;entryY=0;entryDx=0;entryDy=0;fillColor=#1ba1e2;strokeColor=#006EAF;strokeWidth=2;" parent="1" source="NwVNzG-oY3nR5FVAmbtb-9" target="uby8TdKSxkSI9Pqp53rK-1" edge="1">
          <mxGeometry relative="1" as="geometry" />
        </mxCell>
        <mxCell id="NwVNzG-oY3nR5FVAmbtb-9" value="&lt;h2&gt;&lt;font face=&quot;Helvetica&quot;&gt;Login&lt;/font&gt;&lt;/h2&gt;" style="rounded=0;whiteSpace=wrap;html=1;fillColor=#0050ef;strokeColor=#001DBC;fontFamily=Montserrat;fontSource=%22https%3A%2F%2Ffonts.googleapis.com%2Fcss2%3Ffamily%3DMontserrat%3Awght%40100%3B200%3B300%3B400%3B500%3B600%3B700%3B800%3B900%26display%3Dswap;fontColor=#ffffff;" parent="1" vertex="1">
          <mxGeometry x="2590" y="4340" width="190" height="60" as="geometry" />
        </mxCell>
        <mxCell id="uby8TdKSxkSI9Pqp53rK-19" style="edgeStyle=orthogonalEdgeStyle;rounded=0;orthogonalLoop=1;jettySize=auto;html=1;exitX=0.5;exitY=1;exitDx=0;exitDy=0;entryX=0.5;entryY=0;entryDx=0;entryDy=0;fillColor=#1ba1e2;strokeColor=#006EAF;strokeWidth=2;" parent="1" source="NwVNzG-oY3nR5FVAmbtb-10" target="uby8TdKSxkSI9Pqp53rK-2" edge="1">
          <mxGeometry relative="1" as="geometry" />
        </mxCell>
        <mxCell id="NwVNzG-oY3nR5FVAmbtb-10" value="&lt;h2&gt;&lt;font face=&quot;Helvetica&quot;&gt;Signup&lt;/font&gt;&lt;/h2&gt;" style="rounded=0;whiteSpace=wrap;html=1;fillColor=#0050ef;strokeColor=#001DBC;fontFamily=Montserrat;fontSource=%22https%3A%2F%2Ffonts.googleapis.com%2Fcss2%3Ffamily%3DMontserrat%3Awght%40100%3B200%3B300%3B400%3B500%3B600%3B700%3B800%3B900%26display%3Dswap;fontColor=#ffffff;" parent="1" vertex="1">
          <mxGeometry x="3230" y="4220" width="190" height="60" as="geometry" />
        </mxCell>
        <mxCell id="uby8TdKSxkSI9Pqp53rK-16" style="edgeStyle=orthogonalEdgeStyle;rounded=0;orthogonalLoop=1;jettySize=auto;html=1;exitX=0.5;exitY=1;exitDx=0;exitDy=0;entryX=0.5;entryY=0;entryDx=0;entryDy=0;fillColor=#1ba1e2;strokeColor=#006EAF;strokeWidth=2;" parent="1" source="NwVNzG-oY3nR5FVAmbtb-11" target="uby8TdKSxkSI9Pqp53rK-3" edge="1">
          <mxGeometry relative="1" as="geometry" />
        </mxCell>
        <mxCell id="NwVNzG-oY3nR5FVAmbtb-11" value="&lt;h2&gt;&lt;font face=&quot;Helvetica&quot;&gt;Password Reset&lt;/font&gt;&lt;/h2&gt;" style="rounded=0;whiteSpace=wrap;html=1;fillColor=#0050ef;strokeColor=#001DBC;fontFamily=Montserrat;fontSource=%22https%3A%2F%2Ffonts.googleapis.com%2Fcss2%3Ffamily%3DMontserrat%3Awght%40100%3B200%3B300%3B400%3B500%3B600%3B700%3B800%3B900%26display%3Dswap;fontColor=#ffffff;" parent="1" vertex="1">
          <mxGeometry x="3560" y="4220" width="190" height="60" as="geometry" />
        </mxCell>
        <mxCell id="uby8TdKSxkSI9Pqp53rK-25" style="edgeStyle=orthogonalEdgeStyle;rounded=0;orthogonalLoop=1;jettySize=auto;html=1;exitX=0.25;exitY=1;exitDx=0;exitDy=0;entryX=0;entryY=0.5;entryDx=0;entryDy=0;fillColor=#1ba1e2;strokeColor=#006EAF;strokeWidth=2;" parent="1" source="NwVNzG-oY3nR5FVAmbtb-12" target="NwVNzG-oY3nR5FVAmbtb-22" edge="1">
          <mxGeometry relative="1" as="geometry" />
        </mxCell>
        <mxCell id="NwVNzG-oY3nR5FVAmbtb-12" value="&lt;h2&gt;&lt;font face=&quot;Helvetica&quot;&gt;AssignmentsPage&lt;/font&gt;&lt;/h2&gt;" style="rounded=0;whiteSpace=wrap;html=1;fillColor=#0050ef;strokeColor=#001DBC;fontFamily=Montserrat;fontSource=%22https%3A%2F%2Ffonts.googleapis.com%2Fcss2%3Ffamily%3DMontserrat%3Awght%40100%3B200%3B300%3B400%3B500%3B600%3B700%3B800%3B900%26display%3Dswap;fontColor=#ffffff;" parent="1" vertex="1">
          <mxGeometry x="3950" y="4790" width="190" height="60" as="geometry" />
        </mxCell>
        <mxCell id="uby8TdKSxkSI9Pqp53rK-26" style="edgeStyle=orthogonalEdgeStyle;rounded=0;orthogonalLoop=1;jettySize=auto;html=1;exitX=0.25;exitY=1;exitDx=0;exitDy=0;entryX=0;entryY=0.5;entryDx=0;entryDy=0;fillColor=#1ba1e2;strokeColor=#006EAF;strokeWidth=2;" parent="1" source="NwVNzG-oY3nR5FVAmbtb-13" target="NwVNzG-oY3nR5FVAmbtb-23" edge="1">
          <mxGeometry relative="1" as="geometry" />
        </mxCell>
        <mxCell id="uby8TdKSxkSI9Pqp53rK-30" style="edgeStyle=orthogonalEdgeStyle;rounded=0;orthogonalLoop=1;jettySize=auto;html=1;exitX=0.25;exitY=1;exitDx=0;exitDy=0;entryX=0;entryY=0.5;entryDx=0;entryDy=0;fillColor=#1ba1e2;strokeColor=#006EAF;strokeWidth=2;" parent="1" source="NwVNzG-oY3nR5FVAmbtb-13" target="NwVNzG-oY3nR5FVAmbtb-24" edge="1">
          <mxGeometry relative="1" as="geometry" />
        </mxCell>
        <mxCell id="uby8TdKSxkSI9Pqp53rK-53" style="edgeStyle=orthogonalEdgeStyle;rounded=0;orthogonalLoop=1;jettySize=auto;html=1;exitX=0.25;exitY=1;exitDx=0;exitDy=0;entryX=0;entryY=0.5;entryDx=0;entryDy=0;fillColor=#1ba1e2;strokeColor=#006EAF;strokeWidth=2;" parent="1" source="NwVNzG-oY3nR5FVAmbtb-13" target="uby8TdKSxkSI9Pqp53rK-51" edge="1">
          <mxGeometry relative="1" as="geometry" />
        </mxCell>
        <mxCell id="NwVNzG-oY3nR5FVAmbtb-13" value="&lt;h2&gt;&lt;font face=&quot;Helvetica&quot;&gt;DashboardPage&lt;/font&gt;&lt;/h2&gt;" style="rounded=0;whiteSpace=wrap;html=1;fillColor=#0050ef;strokeColor=#001DBC;fontFamily=Montserrat;fontSource=%22https%3A%2F%2Ffonts.googleapis.com%2Fcss2%3Ffamily%3DMontserrat%3Awght%40100%3B200%3B300%3B400%3B500%3B600%3B700%3B800%3B900%26display%3Dswap;fontColor=#ffffff;" parent="1" vertex="1">
          <mxGeometry x="3680" y="4790" width="190" height="60" as="geometry" />
        </mxCell>
        <mxCell id="uby8TdKSxkSI9Pqp53rK-27" style="edgeStyle=orthogonalEdgeStyle;rounded=0;orthogonalLoop=1;jettySize=auto;html=1;exitX=0.25;exitY=1;exitDx=0;exitDy=0;entryX=0;entryY=0.5;entryDx=0;entryDy=0;fillColor=#1ba1e2;strokeColor=#006EAF;strokeWidth=2;" parent="1" source="NwVNzG-oY3nR5FVAmbtb-14" target="NwVNzG-oY3nR5FVAmbtb-25" edge="1">
          <mxGeometry relative="1" as="geometry" />
        </mxCell>
        <mxCell id="NwVNzG-oY3nR5FVAmbtb-14" value="&lt;h2&gt;&lt;font face=&quot;Helvetica&quot;&gt;TimetablePage&lt;/font&gt;&lt;/h2&gt;" style="rounded=0;whiteSpace=wrap;html=1;fillColor=#0050ef;strokeColor=#001DBC;fontFamily=Montserrat;fontSource=%22https%3A%2F%2Ffonts.googleapis.com%2Fcss2%3Ffamily%3DMontserrat%3Awght%40100%3B200%3B300%3B400%3B500%3B600%3B700%3B800%3B900%26display%3Dswap;fontColor=#ffffff;" parent="1" vertex="1">
          <mxGeometry x="3380" y="4790" width="190" height="60" as="geometry" />
        </mxCell>
        <mxCell id="uby8TdKSxkSI9Pqp53rK-28" style="edgeStyle=orthogonalEdgeStyle;rounded=0;orthogonalLoop=1;jettySize=auto;html=1;exitX=0.25;exitY=1;exitDx=0;exitDy=0;entryX=0;entryY=0.5;entryDx=0;entryDy=0;fillColor=#1ba1e2;strokeColor=#006EAF;strokeWidth=2;" parent="1" source="NwVNzG-oY3nR5FVAmbtb-15" target="NwVNzG-oY3nR5FVAmbtb-16" edge="1">
          <mxGeometry relative="1" as="geometry" />
        </mxCell>
        <mxCell id="NwVNzG-oY3nR5FVAmbtb-15" value="&lt;h2&gt;&lt;font face=&quot;Helvetica&quot;&gt;BehaviourPage&lt;/font&gt;&lt;/h2&gt;" style="rounded=0;whiteSpace=wrap;html=1;fillColor=#0050ef;strokeColor=#001DBC;fontFamily=Montserrat;fontSource=%22https%3A%2F%2Ffonts.googleapis.com%2Fcss2%3Ffamily%3DMontserrat%3Awght%40100%3B200%3B300%3B400%3B500%3B600%3B700%3B800%3B900%26display%3Dswap;fontColor=#ffffff;" parent="1" vertex="1">
          <mxGeometry x="3100" y="4790" width="190" height="60" as="geometry" />
        </mxCell>
        <mxCell id="NwVNzG-oY3nR5FVAmbtb-16" value="&lt;h2&gt;&lt;font face=&quot;Helvetica&quot;&gt;ViewRecentEvents&lt;/font&gt;&lt;/h2&gt;" style="rounded=0;whiteSpace=wrap;html=1;fillColor=#0050ef;strokeColor=#001DBC;fontFamily=Montserrat;fontSource=%22https%3A%2F%2Ffonts.googleapis.com%2Fcss2%3Ffamily%3DMontserrat%3Awght%40100%3B200%3B300%3B400%3B500%3B600%3B700%3B800%3B900%26display%3Dswap;fontColor=#ffffff;" parent="1" vertex="1">
          <mxGeometry x="3170" y="4890" width="190" height="60" as="geometry" />
        </mxCell>
        <mxCell id="uby8TdKSxkSI9Pqp53rK-36" style="edgeStyle=orthogonalEdgeStyle;rounded=0;orthogonalLoop=1;jettySize=auto;html=1;exitX=0.25;exitY=1;exitDx=0;exitDy=0;entryX=0;entryY=0.5;entryDx=0;entryDy=0;fillColor=#1ba1e2;strokeColor=#006EAF;strokeWidth=2;" parent="1" source="NwVNzG-oY3nR5FVAmbtb-17" target="NwVNzG-oY3nR5FVAmbtb-27" edge="1">
          <mxGeometry relative="1" as="geometry" />
        </mxCell>
        <mxCell id="uby8TdKSxkSI9Pqp53rK-48" style="edgeStyle=orthogonalEdgeStyle;rounded=0;orthogonalLoop=1;jettySize=auto;html=1;exitX=0.25;exitY=1;exitDx=0;exitDy=0;entryX=0;entryY=0.5;entryDx=0;entryDy=0;fillColor=#1ba1e2;strokeColor=#006EAF;strokeWidth=2;" parent="1" source="NwVNzG-oY3nR5FVAmbtb-17" target="NwVNzG-oY3nR5FVAmbtb-28" edge="1">
          <mxGeometry relative="1" as="geometry" />
        </mxCell>
        <mxCell id="NwVNzG-oY3nR5FVAmbtb-17" value="&lt;h2&gt;&lt;font face=&quot;Helvetica&quot;&gt;AssignmentsPage&lt;/font&gt;&lt;/h2&gt;" style="rounded=0;whiteSpace=wrap;html=1;fillColor=#0050ef;strokeColor=#001DBC;fontFamily=Montserrat;fontSource=%22https%3A%2F%2Ffonts.googleapis.com%2Fcss2%3Ffamily%3DMontserrat%3Awght%40100%3B200%3B300%3B400%3B500%3B600%3B700%3B800%3B900%26display%3Dswap;fontColor=#ffffff;" parent="1" vertex="1">
          <mxGeometry x="3889" y="5262" width="190" height="60" as="geometry" />
        </mxCell>
        <mxCell id="uby8TdKSxkSI9Pqp53rK-46" style="edgeStyle=orthogonalEdgeStyle;rounded=0;orthogonalLoop=1;jettySize=auto;html=1;exitX=0.25;exitY=1;exitDx=0;exitDy=0;entryX=0;entryY=0.5;entryDx=0;entryDy=0;fillColor=#1ba1e2;strokeColor=#006EAF;strokeWidth=2;" parent="1" source="NwVNzG-oY3nR5FVAmbtb-18" target="NwVNzG-oY3nR5FVAmbtb-29" edge="1">
          <mxGeometry relative="1" as="geometry" />
        </mxCell>
        <mxCell id="uby8TdKSxkSI9Pqp53rK-47" style="edgeStyle=orthogonalEdgeStyle;rounded=0;orthogonalLoop=1;jettySize=auto;html=1;exitX=0.25;exitY=1;exitDx=0;exitDy=0;entryX=0;entryY=0.5;entryDx=0;entryDy=0;fillColor=#1ba1e2;strokeColor=#006EAF;strokeWidth=2;" parent="1" source="NwVNzG-oY3nR5FVAmbtb-18" target="NwVNzG-oY3nR5FVAmbtb-30" edge="1">
          <mxGeometry relative="1" as="geometry" />
        </mxCell>
        <mxCell id="uby8TdKSxkSI9Pqp53rK-50" style="edgeStyle=orthogonalEdgeStyle;rounded=0;orthogonalLoop=1;jettySize=auto;html=1;exitX=0.25;exitY=1;exitDx=0;exitDy=0;entryX=0;entryY=0.5;entryDx=0;entryDy=0;fillColor=#1ba1e2;strokeColor=#006EAF;strokeWidth=2;" parent="1" source="NwVNzG-oY3nR5FVAmbtb-18" target="uby8TdKSxkSI9Pqp53rK-49" edge="1">
          <mxGeometry relative="1" as="geometry" />
        </mxCell>
        <mxCell id="NwVNzG-oY3nR5FVAmbtb-18" value="&lt;h2&gt;&lt;font face=&quot;Helvetica&quot;&gt;DashboardPage&lt;/font&gt;&lt;/h2&gt;" style="rounded=0;whiteSpace=wrap;html=1;fillColor=#0050ef;strokeColor=#001DBC;fontFamily=Montserrat;fontSource=%22https%3A%2F%2Ffonts.googleapis.com%2Fcss2%3Ffamily%3DMontserrat%3Awght%40100%3B200%3B300%3B400%3B500%3B600%3B700%3B800%3B900%26display%3Dswap;fontColor=#ffffff;" parent="1" vertex="1">
          <mxGeometry x="3632" y="5262" width="190" height="60" as="geometry" />
        </mxCell>
        <mxCell id="uby8TdKSxkSI9Pqp53rK-45" style="edgeStyle=orthogonalEdgeStyle;rounded=0;orthogonalLoop=1;jettySize=auto;html=1;exitX=0.25;exitY=1;exitDx=0;exitDy=0;entryX=0;entryY=0.5;entryDx=0;entryDy=0;fillColor=#1ba1e2;strokeColor=#006EAF;strokeWidth=2;" parent="1" source="NwVNzG-oY3nR5FVAmbtb-19" target="NwVNzG-oY3nR5FVAmbtb-31" edge="1">
          <mxGeometry relative="1" as="geometry" />
        </mxCell>
        <mxCell id="NwVNzG-oY3nR5FVAmbtb-19" value="&lt;h2&gt;&lt;font face=&quot;Helvetica&quot;&gt;TimetablePage&lt;/font&gt;&lt;/h2&gt;" style="rounded=0;whiteSpace=wrap;html=1;fillColor=#0050ef;strokeColor=#001DBC;fontFamily=Montserrat;fontSource=%22https%3A%2F%2Ffonts.googleapis.com%2Fcss2%3Ffamily%3DMontserrat%3Awght%40100%3B200%3B300%3B400%3B500%3B600%3B700%3B800%3B900%26display%3Dswap;fontColor=#ffffff;" parent="1" vertex="1">
          <mxGeometry x="3375" y="5262" width="190" height="60" as="geometry" />
        </mxCell>
        <mxCell id="uby8TdKSxkSI9Pqp53rK-43" style="edgeStyle=orthogonalEdgeStyle;rounded=0;orthogonalLoop=1;jettySize=auto;html=1;exitX=0.25;exitY=1;exitDx=0;exitDy=0;entryX=0;entryY=0.5;entryDx=0;entryDy=0;fillColor=#1ba1e2;strokeColor=#006EAF;strokeWidth=2;" parent="1" source="NwVNzG-oY3nR5FVAmbtb-20" target="NwVNzG-oY3nR5FVAmbtb-33" edge="1">
          <mxGeometry relative="1" as="geometry" />
        </mxCell>
        <mxCell id="uby8TdKSxkSI9Pqp53rK-44" style="edgeStyle=orthogonalEdgeStyle;rounded=0;orthogonalLoop=1;jettySize=auto;html=1;exitX=0.25;exitY=1;exitDx=0;exitDy=0;entryX=0;entryY=0.5;entryDx=0;entryDy=0;fillColor=#1ba1e2;strokeColor=#006EAF;strokeWidth=2;" parent="1" source="NwVNzG-oY3nR5FVAmbtb-20" target="NwVNzG-oY3nR5FVAmbtb-32" edge="1">
          <mxGeometry relative="1" as="geometry" />
        </mxCell>
        <mxCell id="NwVNzG-oY3nR5FVAmbtb-20" value="&lt;h2&gt;&lt;font face=&quot;Helvetica&quot;&gt;BehaviourPage&lt;/font&gt;&lt;/h2&gt;" style="rounded=0;whiteSpace=wrap;html=1;fillColor=#0050ef;strokeColor=#001DBC;fontFamily=Montserrat;fontSource=%22https%3A%2F%2Ffonts.googleapis.com%2Fcss2%3Ffamily%3DMontserrat%3Awght%40100%3B200%3B300%3B400%3B500%3B600%3B700%3B800%3B900%26display%3Dswap;fontColor=#ffffff;" parent="1" vertex="1">
          <mxGeometry x="3099" y="5262" width="190" height="60" as="geometry" />
        </mxCell>
        <mxCell id="uby8TdKSxkSI9Pqp53rK-42" style="edgeStyle=orthogonalEdgeStyle;rounded=0;orthogonalLoop=1;jettySize=auto;html=1;exitX=0.25;exitY=1;exitDx=0;exitDy=0;entryX=0;entryY=0.5;entryDx=0;entryDy=0;fillColor=#1ba1e2;strokeColor=#006EAF;strokeWidth=2;" parent="1" source="NwVNzG-oY3nR5FVAmbtb-21" target="NwVNzG-oY3nR5FVAmbtb-35" edge="1">
          <mxGeometry relative="1" as="geometry" />
        </mxCell>
        <mxCell id="NwVNzG-oY3nR5FVAmbtb-21" value="&lt;h2&gt;&lt;font face=&quot;Helvetica&quot;&gt;ReportsPage&lt;/font&gt;&lt;br&gt;&lt;/h2&gt;" style="rounded=0;whiteSpace=wrap;html=1;fillColor=#0050ef;strokeColor=#001DBC;fontFamily=Montserrat;fontSource=%22https%3A%2F%2Ffonts.googleapis.com%2Fcss2%3Ffamily%3DMontserrat%3Awght%40100%3B200%3B300%3B400%3B500%3B600%3B700%3B800%3B900%26display%3Dswap;fontColor=#ffffff;" parent="1" vertex="1">
          <mxGeometry x="2809" y="5262" width="190" height="60" as="geometry" />
        </mxCell>
        <mxCell id="NwVNzG-oY3nR5FVAmbtb-22" value="&lt;h2&gt;&lt;font face=&quot;Helvetica&quot;&gt;ViewAssignments&lt;/font&gt;&lt;/h2&gt;" style="rounded=0;whiteSpace=wrap;html=1;fillColor=#0050ef;strokeColor=#001DBC;fontFamily=Montserrat;fontSource=%22https%3A%2F%2Ffonts.googleapis.com%2Fcss2%3Ffamily%3DMontserrat%3Awght%40100%3B200%3B300%3B400%3B500%3B600%3B700%3B800%3B900%26display%3Dswap;fontColor=#ffffff;" parent="1" vertex="1">
          <mxGeometry x="4020" y="4890" width="190" height="60" as="geometry" />
        </mxCell>
        <mxCell id="NwVNzG-oY3nR5FVAmbtb-23" value="&lt;h2&gt;&lt;font face=&quot;Helvetica&quot;&gt;ViewStudentDetails&lt;/font&gt;&lt;/h2&gt;" style="rounded=0;whiteSpace=wrap;html=1;fillColor=#0050ef;strokeColor=#001DBC;fontFamily=Montserrat;fontSource=%22https%3A%2F%2Ffonts.googleapis.com%2Fcss2%3Ffamily%3DMontserrat%3Awght%40100%3B200%3B300%3B400%3B500%3B600%3B700%3B800%3B900%26display%3Dswap;fontColor=#ffffff;" parent="1" vertex="1">
          <mxGeometry x="3750" y="4885" width="190" height="60" as="geometry" />
        </mxCell>
        <mxCell id="NwVNzG-oY3nR5FVAmbtb-24" value="&lt;h2&gt;&lt;font face=&quot;Helvetica&quot;&gt;ViewRecents&lt;/font&gt;&lt;/h2&gt;" style="rounded=0;whiteSpace=wrap;html=1;fillColor=#0050ef;strokeColor=#001DBC;fontFamily=Montserrat;fontSource=%22https%3A%2F%2Ffonts.googleapis.com%2Fcss2%3Ffamily%3DMontserrat%3Awght%40100%3B200%3B300%3B400%3B500%3B600%3B700%3B800%3B900%26display%3Dswap;fontColor=#ffffff;" parent="1" vertex="1">
          <mxGeometry x="3750" y="4985" width="190" height="60" as="geometry" />
        </mxCell>
        <mxCell id="NwVNzG-oY3nR5FVAmbtb-25" value="&lt;h2&gt;&lt;font face=&quot;Helvetica&quot;&gt;ViewTimetable&lt;/font&gt;&lt;/h2&gt;" style="rounded=0;whiteSpace=wrap;html=1;fillColor=#0050ef;strokeColor=#001DBC;fontFamily=Montserrat;fontSource=%22https%3A%2F%2Ffonts.googleapis.com%2Fcss2%3Ffamily%3DMontserrat%3Awght%40100%3B200%3B300%3B400%3B500%3B600%3B700%3B800%3B900%26display%3Dswap;fontColor=#ffffff;" parent="1" vertex="1">
          <mxGeometry x="3450" y="4890" width="190" height="60" as="geometry" />
        </mxCell>
        <mxCell id="NwVNzG-oY3nR5FVAmbtb-27" value="&lt;h2&gt;&lt;font face=&quot;Helvetica&quot;&gt;SetAssignments&lt;/font&gt;&lt;/h2&gt;" style="rounded=0;whiteSpace=wrap;html=1;fillColor=#0050ef;strokeColor=#001DBC;fontFamily=Montserrat;fontSource=%22https%3A%2F%2Ffonts.googleapis.com%2Fcss2%3Ffamily%3DMontserrat%3Awght%40100%3B200%3B300%3B400%3B500%3B600%3B700%3B800%3B900%26display%3Dswap;fontColor=#ffffff;" parent="1" vertex="1">
          <mxGeometry x="3956" y="5362" width="190" height="60" as="geometry" />
        </mxCell>
        <mxCell id="NwVNzG-oY3nR5FVAmbtb-28" value="&lt;h2&gt;&lt;font face=&quot;Helvetica&quot;&gt;ViewSetAssignments&lt;/font&gt;&lt;/h2&gt;" style="rounded=0;whiteSpace=wrap;html=1;fillColor=#0050ef;strokeColor=#001DBC;fontFamily=Montserrat;fontSource=%22https%3A%2F%2Ffonts.googleapis.com%2Fcss2%3Ffamily%3DMontserrat%3Awght%40100%3B200%3B300%3B400%3B500%3B600%3B700%3B800%3B900%26display%3Dswap;fontColor=#ffffff;" parent="1" vertex="1">
          <mxGeometry x="3956" y="5462" width="190" height="60" as="geometry" />
        </mxCell>
        <mxCell id="NwVNzG-oY3nR5FVAmbtb-29" value="&lt;h2&gt;&lt;font face=&quot;Helvetica&quot;&gt;ViewTeacherDetails&lt;/font&gt;&lt;/h2&gt;" style="rounded=0;whiteSpace=wrap;html=1;fillColor=#0050ef;strokeColor=#001DBC;fontFamily=Montserrat;fontSource=%22https%3A%2F%2Ffonts.googleapis.com%2Fcss2%3Ffamily%3DMontserrat%3Awght%40100%3B200%3B300%3B400%3B500%3B600%3B700%3B800%3B900%26display%3Dswap;fontColor=#ffffff;" parent="1" vertex="1">
          <mxGeometry x="3699" y="5367" width="190" height="60" as="geometry" />
        </mxCell>
        <mxCell id="NwVNzG-oY3nR5FVAmbtb-30" value="&lt;h2&gt;&lt;font face=&quot;Helvetica&quot;&gt;ViewRecents&lt;/font&gt;&lt;/h2&gt;" style="rounded=0;whiteSpace=wrap;html=1;fillColor=#0050ef;strokeColor=#001DBC;fontFamily=Montserrat;fontSource=%22https%3A%2F%2Ffonts.googleapis.com%2Fcss2%3Ffamily%3DMontserrat%3Awght%40100%3B200%3B300%3B400%3B500%3B600%3B700%3B800%3B900%26display%3Dswap;fontColor=#ffffff;" parent="1" vertex="1">
          <mxGeometry x="3699" y="5457" width="190" height="60" as="geometry" />
        </mxCell>
        <mxCell id="NwVNzG-oY3nR5FVAmbtb-31" value="&lt;h2&gt;&lt;font face=&quot;Helvetica&quot;&gt;ViewTimetable&lt;/font&gt;&lt;/h2&gt;" style="rounded=0;whiteSpace=wrap;html=1;fillColor=#0050ef;strokeColor=#001DBC;fontFamily=Montserrat;fontSource=%22https%3A%2F%2Ffonts.googleapis.com%2Fcss2%3Ffamily%3DMontserrat%3Awght%40100%3B200%3B300%3B400%3B500%3B600%3B700%3B800%3B900%26display%3Dswap;fontColor=#ffffff;" parent="1" vertex="1">
          <mxGeometry x="3442" y="5362" width="190" height="60" as="geometry" />
        </mxCell>
        <mxCell id="NwVNzG-oY3nR5FVAmbtb-32" value="&lt;h2&gt;&lt;font face=&quot;Helvetica&quot;&gt;AddBehaviourEvent&lt;/font&gt;&lt;/h2&gt;" style="rounded=0;whiteSpace=wrap;html=1;fillColor=#0050ef;strokeColor=#001DBC;fontFamily=Montserrat;fontSource=%22https%3A%2F%2Ffonts.googleapis.com%2Fcss2%3Ffamily%3DMontserrat%3Awght%40100%3B200%3B300%3B400%3B500%3B600%3B700%3B800%3B900%26display%3Dswap;fontColor=#ffffff;" parent="1" vertex="1">
          <mxGeometry x="3166" y="5442" width="190" height="60" as="geometry" />
        </mxCell>
        <mxCell id="NwVNzG-oY3nR5FVAmbtb-33" value="&lt;h2&gt;&lt;font face=&quot;Helvetica&quot;&gt;ViewStudentEvents&lt;/font&gt;&lt;/h2&gt;" style="rounded=0;whiteSpace=wrap;html=1;fillColor=#0050ef;strokeColor=#001DBC;fontFamily=Montserrat;fontSource=%22https%3A%2F%2Ffonts.googleapis.com%2Fcss2%3Ffamily%3DMontserrat%3Awght%40100%3B200%3B300%3B400%3B500%3B600%3B700%3B800%3B900%26display%3Dswap;fontColor=#ffffff;" parent="1" vertex="1">
          <mxGeometry x="3166" y="5352" width="190" height="60" as="geometry" />
        </mxCell>
        <mxCell id="NwVNzG-oY3nR5FVAmbtb-35" value="&lt;h2&gt;&lt;font face=&quot;Helvetica&quot;&gt;ViewStudentReports&lt;/font&gt;&lt;/h2&gt;" style="rounded=0;whiteSpace=wrap;html=1;fillColor=#0050ef;strokeColor=#001DBC;fontFamily=Montserrat;fontSource=%22https%3A%2F%2Ffonts.googleapis.com%2Fcss2%3Ffamily%3DMontserrat%3Awght%40100%3B200%3B300%3B400%3B500%3B600%3B700%3B800%3B900%26display%3Dswap;fontColor=#ffffff;" parent="1" vertex="1">
          <mxGeometry x="2876" y="5362" width="190" height="60" as="geometry" />
        </mxCell>
        <mxCell id="uby8TdKSxkSI9Pqp53rK-29" style="edgeStyle=orthogonalEdgeStyle;rounded=0;orthogonalLoop=1;jettySize=auto;html=1;exitX=0.25;exitY=1;exitDx=0;exitDy=0;entryX=0;entryY=0.5;entryDx=0;entryDy=0;fillColor=#1ba1e2;strokeColor=#006EAF;strokeWidth=2;" parent="1" source="NwVNzG-oY3nR5FVAmbtb-37" target="NwVNzG-oY3nR5FVAmbtb-38" edge="1">
          <mxGeometry relative="1" as="geometry" />
        </mxCell>
        <mxCell id="NwVNzG-oY3nR5FVAmbtb-37" value="&lt;h2&gt;&lt;font face=&quot;Helvetica&quot;&gt;ReportsPage&lt;/font&gt;&lt;br&gt;&lt;/h2&gt;" style="rounded=0;whiteSpace=wrap;html=1;fillColor=#0050ef;strokeColor=#001DBC;fontFamily=Montserrat;fontSource=%22https%3A%2F%2Ffonts.googleapis.com%2Fcss2%3Ffamily%3DMontserrat%3Awght%40100%3B200%3B300%3B400%3B500%3B600%3B700%3B800%3B900%26display%3Dswap;fontColor=#ffffff;" parent="1" vertex="1">
          <mxGeometry x="2800" y="4790" width="190" height="60" as="geometry" />
        </mxCell>
        <mxCell id="NwVNzG-oY3nR5FVAmbtb-38" value="&lt;h2&gt;&lt;font face=&quot;Helvetica&quot;&gt;ViewRecentReports&lt;/font&gt;&lt;/h2&gt;" style="rounded=0;whiteSpace=wrap;html=1;fillColor=#0050ef;strokeColor=#001DBC;fontFamily=Montserrat;fontSource=%22https%3A%2F%2Ffonts.googleapis.com%2Fcss2%3Ffamily%3DMontserrat%3Awght%40100%3B200%3B300%3B400%3B500%3B600%3B700%3B800%3B900%26display%3Dswap;fontColor=#ffffff;" parent="1" vertex="1">
          <mxGeometry x="2870" y="4890" width="190" height="60" as="geometry" />
        </mxCell>
        <mxCell id="uby8TdKSxkSI9Pqp53rK-58" style="edgeStyle=orthogonalEdgeStyle;rounded=0;orthogonalLoop=1;jettySize=auto;html=1;exitX=0.5;exitY=1;exitDx=0;exitDy=0;entryX=0;entryY=0.5;entryDx=0;entryDy=0;fillColor=#1ba1e2;strokeColor=#006EAF;strokeWidth=2;" parent="1" source="uby8TdKSxkSI9Pqp53rK-1" target="NwVNzG-oY3nR5FVAmbtb-8" edge="1">
          <mxGeometry relative="1" as="geometry" />
        </mxCell>
        <mxCell id="uby8TdKSxkSI9Pqp53rK-61" style="edgeStyle=orthogonalEdgeStyle;rounded=0;orthogonalLoop=1;jettySize=auto;html=1;exitX=0.5;exitY=1;exitDx=0;exitDy=0;entryX=0;entryY=0.5;entryDx=0;entryDy=0;fillColor=#1ba1e2;strokeColor=#006EAF;strokeWidth=2;" parent="1" source="uby8TdKSxkSI9Pqp53rK-1" target="NwVNzG-oY3nR5FVAmbtb-7" edge="1">
          <mxGeometry relative="1" as="geometry" />
        </mxCell>
        <mxCell id="uby8TdKSxkSI9Pqp53rK-1" value="&lt;h2&gt;&lt;font face=&quot;Helvetica&quot;&gt;Check Details with DB&lt;/font&gt;&lt;/h2&gt;" style="rounded=0;whiteSpace=wrap;html=1;fillColor=#0050ef;strokeColor=#001DBC;fontFamily=Montserrat;fontSource=%22https%3A%2F%2Ffonts.googleapis.com%2Fcss2%3Ffamily%3DMontserrat%3Awght%40100%3B200%3B300%3B400%3B500%3B600%3B700%3B800%3B900%26display%3Dswap;fontColor=#ffffff;" parent="1" vertex="1">
          <mxGeometry x="2590" y="4480" width="190" height="60" as="geometry" />
        </mxCell>
        <mxCell id="uby8TdKSxkSI9Pqp53rK-2" value="&lt;h2&gt;&lt;font face=&quot;Helvetica&quot;&gt;Create Details in DB&lt;/font&gt;&lt;/h2&gt;" style="rounded=0;whiteSpace=wrap;html=1;fillColor=#0050ef;strokeColor=#001DBC;fontFamily=Montserrat;fontSource=%22https%3A%2F%2Ffonts.googleapis.com%2Fcss2%3Ffamily%3DMontserrat%3Awght%40100%3B200%3B300%3B400%3B500%3B600%3B700%3B800%3B900%26display%3Dswap;fontColor=#ffffff;" parent="1" vertex="1">
          <mxGeometry x="3230" y="4350" width="190" height="60" as="geometry" />
        </mxCell>
        <mxCell id="uby8TdKSxkSI9Pqp53rK-17" style="edgeStyle=orthogonalEdgeStyle;rounded=0;orthogonalLoop=1;jettySize=auto;html=1;exitX=0.5;exitY=1;exitDx=0;exitDy=0;entryX=0.5;entryY=0;entryDx=0;entryDy=0;fillColor=#1ba1e2;strokeColor=#006EAF;strokeWidth=2;" parent="1" source="uby8TdKSxkSI9Pqp53rK-3" target="uby8TdKSxkSI9Pqp53rK-4" edge="1">
          <mxGeometry relative="1" as="geometry" />
        </mxCell>
        <mxCell id="uby8TdKSxkSI9Pqp53rK-3" value="&lt;h2&gt;&lt;font face=&quot;Helvetica&quot;&gt;Send Reset Email&lt;/font&gt;&lt;/h2&gt;" style="rounded=0;whiteSpace=wrap;html=1;fillColor=#0050ef;strokeColor=#001DBC;fontFamily=Montserrat;fontSource=%22https%3A%2F%2Ffonts.googleapis.com%2Fcss2%3Ffamily%3DMontserrat%3Awght%40100%3B200%3B300%3B400%3B500%3B600%3B700%3B800%3B900%26display%3Dswap;fontColor=#ffffff;" parent="1" vertex="1">
          <mxGeometry x="3560" y="4350" width="190" height="60" as="geometry" />
        </mxCell>
        <mxCell id="uby8TdKSxkSI9Pqp53rK-18" style="edgeStyle=orthogonalEdgeStyle;rounded=0;orthogonalLoop=1;jettySize=auto;html=1;exitX=0.5;exitY=1;exitDx=0;exitDy=0;entryX=0.5;entryY=0;entryDx=0;entryDy=0;fillColor=#1ba1e2;strokeColor=#006EAF;strokeWidth=2;" parent="1" source="uby8TdKSxkSI9Pqp53rK-4" target="uby8TdKSxkSI9Pqp53rK-5" edge="1">
          <mxGeometry relative="1" as="geometry" />
        </mxCell>
        <mxCell id="uby8TdKSxkSI9Pqp53rK-4" value="&lt;h2&gt;&lt;font face=&quot;Helvetica&quot;&gt;ResetPasswordPage&lt;/font&gt;&lt;/h2&gt;" style="rounded=0;whiteSpace=wrap;html=1;fillColor=#0050ef;strokeColor=#001DBC;fontFamily=Montserrat;fontSource=%22https%3A%2F%2Ffonts.googleapis.com%2Fcss2%3Ffamily%3DMontserrat%3Awght%40100%3B200%3B300%3B400%3B500%3B600%3B700%3B800%3B900%26display%3Dswap;fontColor=#ffffff;" parent="1" vertex="1">
          <mxGeometry x="3560" y="4470" width="190" height="60" as="geometry" />
        </mxCell>
        <mxCell id="uby8TdKSxkSI9Pqp53rK-5" value="&lt;h2&gt;&lt;font face=&quot;Helvetica&quot;&gt;Update Password in DB&lt;/font&gt;&lt;/h2&gt;" style="rounded=0;whiteSpace=wrap;html=1;fillColor=#0050ef;strokeColor=#001DBC;fontFamily=Montserrat;fontSource=%22https%3A%2F%2Ffonts.googleapis.com%2Fcss2%3Ffamily%3DMontserrat%3Awght%40100%3B200%3B300%3B400%3B500%3B600%3B700%3B800%3B900%26display%3Dswap;fontColor=#ffffff;" parent="1" vertex="1">
          <mxGeometry x="3560" y="4590" width="190" height="60" as="geometry" />
        </mxCell>
        <mxCell id="uby8TdKSxkSI9Pqp53rK-49" value="&lt;h2&gt;&lt;font face=&quot;Helvetica&quot;&gt;QuickViewTimetable&lt;/font&gt;&lt;/h2&gt;" style="rounded=0;whiteSpace=wrap;html=1;fillColor=#0050ef;strokeColor=#001DBC;fontFamily=Montserrat;fontSource=%22https%3A%2F%2Ffonts.googleapis.com%2Fcss2%3Ffamily%3DMontserrat%3Awght%40100%3B200%3B300%3B400%3B500%3B600%3B700%3B800%3B900%26display%3Dswap;fontColor=#ffffff;" parent="1" vertex="1">
          <mxGeometry x="3699" y="5552" width="190" height="60" as="geometry" />
        </mxCell>
        <mxCell id="uby8TdKSxkSI9Pqp53rK-51" value="&lt;h2&gt;&lt;font face=&quot;Helvetica&quot;&gt;QuickViewTimetable&lt;/font&gt;&lt;/h2&gt;" style="rounded=0;whiteSpace=wrap;html=1;fillColor=#0050ef;strokeColor=#001DBC;fontFamily=Montserrat;fontSource=%22https%3A%2F%2Ffonts.googleapis.com%2Fcss2%3Ffamily%3DMontserrat%3Awght%40100%3B200%3B300%3B400%3B500%3B600%3B700%3B800%3B900%26display%3Dswap;fontColor=#ffffff;" parent="1" vertex="1">
          <mxGeometry x="3750" y="5080" width="190" height="60" as="geometry" />
        </mxCell>
      </root>
    </mxGraphModel>
  </diagram>
</mxfile>
